<svg width="172" height="20" viewBox="0 0 172 20" fill="none" xmlns="http://www.w3.org/2000/svg">
<path d="M18.104 15.04C18.104 13.864 18.128 12.616 18.176 11.848C18.248 11.008 18.512 10.744 19.088 10.624C19.328 10.6 19.64 10.552 19.736 10.552C19.976 10.528 20.12 10.48 20.12 10.312C20.12 10.12 19.928 10.072 19.568 10.072C18.272 10.072 16.712 10.144 15.848 10.144C15.2 10.144 13.352 10.072 11.792 10.072C11.408 10.072 11.288 10.168 11.288 10.312C11.288 10.456 11.48 10.552 11.672 10.552C12.08 10.6 12.392 10.624 12.704 10.672C13.52 10.792 13.832 11.296 13.832 12.664C13.856 13.552 13.856 14.488 13.856 15.472V16.936C13.856 17.224 13.76 17.44 13.568 17.584C13.208 17.848 12.56 17.872 12.224 17.872C7.184 17.872 5.12 13.288 5.12 8.992C5.12 6.64 5.696 4.864 6.632 3.808C7.712 2.584 9.152 2.08 10.928 2.08C14.264 2.08 16.4 3.232 16.856 4.864C17.096 5.44 17.096 5.704 17.144 6.064C17.168 6.256 17.264 6.448 17.432 6.448C17.6 6.448 17.696 6.328 17.696 5.944C17.696 2.752 17.912 1.768 17.96 1.528C17.984 1.312 17.936 1.216 17.72 1.216C17.024 1.192 16.232 1.024 15.416 0.927999C14.384 0.759999 12.992 0.592 11.528 0.592C9.704 0.592 7.112 0.711999 4.64 2.176C2.408 3.448 0.32 5.992 0.32 10C0.32 16.384 5 19.408 11.744 19.408C13.904 19.408 16.352 19 17.624 18.496C18.056 18.328 18.104 18.184 18.104 16.768V15.04ZM30.7016 15.112C30.7736 15.112 30.8696 15.16 30.8936 15.232L32.2136 18.184C32.3336 18.448 32.1176 18.472 31.9256 18.544C31.7816 18.592 31.6376 18.64 31.6376 18.784C31.6376 18.904 31.7816 19 32.0696 19C33.3416 19.024 35.8376 19.048 38.2616 19.072C38.5016 19.072 38.6936 19 38.6936 18.832C38.6936 18.712 38.5496 18.592 38.2856 18.592C38.1656 18.592 37.9976 18.568 37.8056 18.544C36.9896 18.424 36.6056 17.872 35.8616 16.336C34.4216 13.168 30.7016 5.368 30.1736 4.192C29.7656 3.376 29.5736 3.064 29.3336 3.064C29.0696 3.064 28.8296 3.376 28.3256 4.48L22.5656 16.768C21.9416 18.184 21.3896 18.472 20.3576 18.592C20.0936 18.592 19.9736 18.688 19.9736 18.832C19.9736 18.976 20.0696 19.072 20.4056 19.072C21.4376 19.072 22.8296 19 23.0696 19C24.2936 19 25.0136 19.072 26.0696 19.072C26.3576 19.072 26.4776 18.976 26.4776 18.808C26.4776 18.712 26.4056 18.616 26.0936 18.592C25.5416 18.544 24.6296 18.52 24.6296 17.824C24.6296 17.56 24.7736 17.08 24.9896 16.552L25.4936 15.328C25.5176 15.256 25.5896 15.112 25.7336 15.112H30.7016ZM26.4056 13.216C26.3576 13.216 26.3096 13.192 26.3336 13.12L28.1096 8.848C28.1576 8.752 28.1576 8.704 28.2296 8.824L30.1256 13.12C30.1496 13.168 30.1496 13.216 30.0056 13.216H26.4056ZM40.9147 13.024C40.9147 15.088 40.8907 16.528 40.7707 17.392C40.7227 17.992 40.5307 18.424 40.0747 18.52C39.7867 18.568 39.5707 18.568 39.3787 18.592C39.1387 18.592 39.0187 18.712 39.0187 18.832C39.0187 19 39.1627 19.072 39.5227 19.072C40.1947 19.072 42.6907 19 42.7387 19C42.8587 19 45.3307 19.072 46.8187 19.072C47.1787 19.072 47.2747 18.952 47.2747 18.856C47.2747 18.736 47.1787 18.592 46.8187 18.592C46.5787 18.568 46.2187 18.568 45.9307 18.496C45.2827 18.352 45.1387 17.992 45.0907 17.464C44.9947 16.576 44.9707 14.608 44.9707 13.024V9.376C44.9707 6.136 44.9707 5.632 45.0427 4.96C45.1387 4.24 45.3307 4.024 45.9067 3.904C46.1467 3.856 46.1707 3.856 46.3867 3.832C46.6507 3.808 46.8187 3.76 46.8187 3.592C46.8187 3.448 46.7707 3.352 46.3867 3.352C45.5707 3.352 42.8587 3.424 42.7387 3.424C42.6667 3.424 40.3627 3.352 39.5227 3.352C39.1147 3.352 39.0427 3.472 39.0427 3.592C39.0427 3.736 39.1627 3.808 39.4507 3.832C39.7387 3.856 39.9787 3.88 40.1227 3.928C40.6507 4 40.7947 4.384 40.8427 4.936C40.9147 5.584 40.9147 6.136 40.9147 9.376V13.024ZM57.8656 15.112C57.9376 15.112 58.0336 15.16 58.0576 15.232L59.3776 18.184C59.4976 18.448 59.2816 18.472 59.0896 18.544C58.9456 18.592 58.8016 18.64 58.8016 18.784C58.8016 18.904 58.9456 19 59.2336 19C60.5056 19.024 63.0016 19.048 65.4256 19.072C65.6656 19.072 65.8576 19 65.8576 18.832C65.8576 18.712 65.7136 18.592 65.4496 18.592C65.3296 18.592 65.1616 18.568 64.9696 18.544C64.1536 18.424 63.7696 17.872 63.0256 16.336C61.5856 13.168 57.8656 5.368 57.3376 4.192C56.9296 3.376 56.7376 3.064 56.4976 3.064C56.2336 3.064 55.9936 3.376 55.4896 4.48L49.7296 16.768C49.1056 18.184 48.5536 18.472 47.5216 18.592C47.2576 18.592 47.1376 18.688 47.1376 18.832C47.1376 18.976 47.2336 19.072 47.5696 19.072C48.6016 19.072 49.9936 19 50.2336 19C51.4576 19 52.1776 19.072 53.2336 19.072C53.5216 19.072 53.6416 18.976 53.6416 18.808C53.6416 18.712 53.5696 18.616 53.2576 18.592C52.7056 18.544 51.7936 18.52 51.7936 17.824C51.7936 17.56 51.9376 17.08 52.1536 16.552L52.6576 15.328C52.6816 15.256 52.7536 15.112 52.8976 15.112H57.8656ZM53.5696 13.216C53.5216 13.216 53.4736 13.192 53.4976 13.12L55.2736 8.848C55.3216 8.752 55.3216 8.704 55.3936 8.824L57.2896 13.12C57.3136 13.168 57.3136 13.216 57.1696 13.216H53.5696ZM75.1893 11.44C75.1893 14.464 75.1413 15.856 75.0453 17.176C74.9733 18.064 74.7093 18.424 74.2773 18.496C74.0853 18.544 73.8693 18.568 73.5573 18.592C73.1973 18.592 73.0773 18.664 73.0773 18.832C73.0773 19 73.2453 19.072 73.5813 19.072C74.8773 19.072 76.0053 19 77.0613 19C77.7813 19 80.6133 19.144 81.5013 19.144C86.2773 19.144 88.7733 16.504 88.7733 13.84C88.7733 10.936 86.6373 9.4 84.1173 8.632C85.7013 7.816 87.0453 6.568 87.0453 4.624C87.0453 3.28 86.0853 0.927999 81.0213 0.927999C80.0853 0.927999 78.6693 0.999999 77.0853 0.999999C75.9093 0.999999 74.7093 0.927999 73.2453 0.927999C72.9573 0.927999 72.7653 0.975999 72.7653 1.168C72.7653 1.288 72.8373 1.384 73.1973 1.408C73.4613 1.432 73.7973 1.456 74.0853 1.48C74.7813 1.552 75.1173 1.936 75.1413 2.92C75.1653 3.688 75.1893 4.36 75.1893 7.888V11.44ZM79.3413 2.8C79.3413 2.464 79.4373 2.416 79.5813 2.368C79.7733 2.296 80.0613 2.248 80.4453 2.248C82.3413 2.248 83.3013 3.88 83.3013 5.824C83.3013 6.856 83.0133 7.696 82.5093 8.104C82.1733 8.392 81.6213 8.488 81.0693 8.488C80.7333 8.488 79.9413 8.464 79.5573 8.392C79.4373 8.368 79.3413 8.344 79.3413 8.152V2.8ZM79.3413 10.024C79.3413 9.904 79.3893 9.856 79.4853 9.856C79.7253 9.832 80.3013 9.832 80.6853 9.856C81.4293 9.904 82.2693 10.144 82.9173 10.768C84.0213 11.8 84.3333 13.216 84.3333 14.464C84.3333 16.864 82.8453 17.728 81.5973 17.728C81.1173 17.728 80.5413 17.656 80.0133 17.344C79.5333 17.104 79.4373 16.792 79.3893 16.024C79.3173 14.8 79.3413 13.12 79.3413 11.968V10.024ZM92.6647 13.024C92.6647 15.064 92.6407 16.456 92.5447 17.32C92.4967 18.064 92.3047 18.424 91.8727 18.52C91.6327 18.568 91.3207 18.568 91.1287 18.592C90.8887 18.592 90.7447 18.688 90.7447 18.808C90.7447 18.952 90.8167 19.072 91.1767 19.072C91.8727 19.072 94.1287 19 94.3687 19C94.4887 19 97.0327 19.072 98.4967 19.072C98.8087 19.072 98.9047 18.976 98.9047 18.856C98.9047 18.736 98.9047 18.616 98.5207 18.592C98.2567 18.568 97.8247 18.544 97.5367 18.448C96.8887 18.28 96.7687 17.848 96.7207 17.32C96.6727 16.696 96.6247 15.688 96.6247 14.128V12.856C96.6247 12.736 96.6967 12.688 96.7927 12.688L98.2327 12.712C98.3527 12.712 98.4487 12.76 98.4727 12.832C98.8807 13.456 99.2407 14.152 100.249 15.832C101.017 17.08 101.689 17.92 102.313 18.328C103.105 18.832 104.137 19.072 106.633 19.072H108.505C108.697 19.072 108.937 19.048 108.937 18.856C108.937 18.736 108.817 18.616 108.601 18.592C108.433 18.568 108.241 18.568 108.025 18.52C107.353 18.424 106.849 18.112 105.745 16.84C104.425 15.376 102.889 13.096 101.761 11.368C103.513 10.24 104.617 8.92 104.617 7.288C104.617 5.656 103.729 4.624 102.577 4.048C101.713 3.568 100.225 3.352 98.0647 3.352C96.9847 3.352 94.7287 3.424 94.3687 3.424C94.1047 3.424 91.8967 3.352 91.0327 3.352C90.6727 3.352 90.6007 3.472 90.6007 3.592C90.6007 3.712 90.6967 3.832 90.9607 3.832C91.1287 3.856 91.3207 3.856 91.7047 3.928C92.1607 3.976 92.5447 4.264 92.5927 5.152C92.6407 5.824 92.6647 6.136 92.6647 9.376V13.024ZM96.6247 5.128C96.6247 4.96 96.6727 4.936 96.7687 4.888C96.8887 4.816 97.2487 4.816 97.5607 4.816C98.6407 4.816 100.657 5.512 100.657 8.464C100.657 9.808 100.297 10.648 99.9127 10.936C99.5767 11.176 99.0727 11.272 98.5927 11.272C97.9687 11.272 97.2247 11.2 96.8167 10.984C96.7207 10.912 96.6247 10.816 96.6247 10.672V5.128ZM110.243 13.024C110.243 15.088 110.219 16.528 110.099 17.392C110.051 17.992 109.859 18.424 109.403 18.52C109.115 18.568 108.899 18.568 108.707 18.592C108.467 18.592 108.347 18.712 108.347 18.832C108.347 19 108.491 19.072 108.851 19.072C109.523 19.072 112.019 19 112.067 19C112.187 19 114.659 19.072 116.147 19.072C116.507 19.072 116.603 18.952 116.603 18.856C116.603 18.736 116.507 18.592 116.147 18.592C115.907 18.568 115.547 18.568 115.259 18.496C114.611 18.352 114.467 17.992 114.419 17.464C114.323 16.576 114.299 14.608 114.299 13.024V9.376C114.299 6.136 114.299 5.632 114.371 4.96C114.467 4.24 114.659 4.024 115.235 3.904C115.475 3.856 115.499 3.856 115.715 3.832C115.979 3.808 116.147 3.76 116.147 3.592C116.147 3.448 116.099 3.352 115.715 3.352C114.899 3.352 112.187 3.424 112.067 3.424C111.995 3.424 109.691 3.352 108.851 3.352C108.443 3.352 108.371 3.472 108.371 3.592C108.371 3.736 108.491 3.808 108.779 3.832C109.067 3.856 109.307 3.88 109.451 3.928C109.979 4 110.123 4.384 110.171 4.936C110.243 5.584 110.243 6.136 110.243 9.376V13.024ZM120.883 13.024C120.883 16.912 121.003 18.424 119.971 18.52C119.659 18.568 119.587 18.592 119.347 18.592C119.107 18.592 118.963 18.712 118.963 18.832C118.963 18.952 119.035 19.072 119.395 19.072C120.403 19.072 121.603 19 122.611 19C123.475 19 125.851 19.24 127.003 19.24C131.443 19.24 133.291 17.8 134.371 16.768C135.595 15.616 136.771 13.576 136.771 11.08C136.771 8.608 135.811 6.88 134.707 5.8C132.835 3.976 130.147 3.376 126.235 3.376C124.291 3.376 123.427 3.424 122.707 3.424C121.675 3.424 119.563 3.352 119.179 3.352C118.771 3.352 118.723 3.448 118.723 3.568C118.723 3.664 118.747 3.784 119.083 3.832L119.779 3.904C120.739 4 120.787 4.648 120.835 5.224C120.883 5.896 120.883 6.328 120.883 9.376V13.024ZM124.939 9.088C124.939 5.2 124.963 5.104 125.155 4.936C125.323 4.816 125.779 4.744 126.283 4.744C127.651 4.744 129.643 5.152 130.987 7.048C131.899 8.344 132.427 9.904 132.427 11.8C132.427 13.48 132.139 15.472 131.107 16.504C130.003 17.68 128.827 17.848 127.483 17.848C126.715 17.848 125.779 17.608 125.371 17.152C125.131 16.888 125.035 16.6 124.987 15.64C124.963 15.232 124.939 13.936 124.939 11.728V9.088ZM155.617 15.616C155.617 14.608 155.617 13.528 155.713 12.808C155.761 12.088 155.977 11.872 156.529 11.8C156.697 11.776 157.009 11.752 157.105 11.752C157.345 11.68 157.441 11.632 157.441 11.488C157.441 11.32 157.249 11.272 156.961 11.272C155.641 11.272 154.225 11.32 153.385 11.32C152.833 11.32 151.129 11.272 149.641 11.272C149.305 11.272 149.185 11.344 149.185 11.464C149.185 11.584 149.305 11.728 149.521 11.752C149.881 11.776 150.169 11.8 150.457 11.848C151.249 11.944 151.537 12.376 151.537 13.672C151.513 14.464 151.513 15.256 151.513 16.072V17.128C151.513 17.368 151.441 17.536 151.297 17.632C151.057 17.872 150.457 17.92 150.025 17.92C145.753 17.92 144.145 13.84 144.145 10.288C144.145 8.368 144.625 6.904 145.369 5.992C146.209 4.96 147.457 4.456 149.137 4.456C152.257 4.456 154.225 5.464 154.489 7.072C154.609 7.384 154.633 7.648 154.681 7.912C154.705 8.08 154.753 8.296 154.921 8.296C155.089 8.296 155.185 8.176 155.185 7.84C155.185 5.032 155.425 4.12 155.449 3.928C155.521 3.736 155.473 3.592 155.257 3.592C154.633 3.568 153.913 3.424 153.121 3.328C152.089 3.184 150.985 3.064 149.737 3.064C148.129 3.064 145.705 3.16 143.473 4.432C141.457 5.536 139.537 7.696 139.537 11.2C139.537 16.672 143.641 19.36 149.881 19.36C151.849 19.36 154.057 18.952 155.137 18.592C155.569 18.448 155.617 18.304 155.617 16.936V15.616ZM160.962 13.024C160.962 14.176 160.938 15.328 160.938 16.12C160.866 17.584 160.794 18.4 160.098 18.52C159.858 18.568 159.69 18.568 159.474 18.592C159.114 18.592 159.042 18.712 159.042 18.808C159.042 18.952 159.138 19.072 159.546 19.072C160.77 19.072 161.802 19 162.81 19C165.09 19 166.626 19.12 169.842 19.12C170.634 19.12 170.802 19.096 170.97 18.568C171.066 18.16 171.282 16.48 171.282 15.568C171.282 15.304 171.258 15.136 171.09 15.136C170.946 15.136 170.85 15.256 170.802 15.496C170.61 16.456 170.37 16.96 169.77 17.2C169.17 17.416 168.33 17.44 167.778 17.44C165.33 17.44 165.066 17.104 165.042 15.64C165.018 14.8 165.042 13.816 165.042 13.12V11.608C165.042 11.488 165.066 11.44 165.186 11.44C165.858 11.44 167.49 11.464 168.162 11.512C169.29 11.584 169.53 11.968 169.65 12.616C169.674 12.76 169.674 12.904 169.698 13.024C169.722 13.264 169.818 13.36 169.938 13.36C170.082 13.36 170.154 13.288 170.154 13C170.154 12.76 170.178 11.656 170.202 11.2C170.226 10.432 170.37 9.52 170.37 9.28C170.37 9.16 170.346 9.016 170.202 9.016C170.106 9.016 170.01 9.088 169.914 9.28C169.65 9.688 169.362 9.76 168.186 9.808C167.346 9.832 165.858 9.832 165.21 9.832C165.066 9.832 165.042 9.784 165.042 9.64V5.248C165.042 5.104 165.09 5.032 165.21 5.032C165.882 5.032 167.634 5.08 168.426 5.128C169.458 5.224 169.722 5.512 169.842 5.992C169.914 6.304 169.914 6.472 169.962 6.76C169.986 6.952 170.082 7.048 170.202 7.048C170.346 7.048 170.442 6.88 170.442 6.712C170.514 5.416 170.538 4.984 170.562 4.456C170.61 3.976 170.682 3.712 170.73 3.448C170.754 3.328 170.706 3.232 170.586 3.232C170.514 3.232 170.394 3.256 170.25 3.304C169.89 3.376 169.434 3.4 169.026 3.4C168.69 3.4 163.17 3.424 162.786 3.424C161.874 3.424 160.866 3.352 159.57 3.352C159.234 3.352 159.114 3.448 159.114 3.568C159.114 3.688 159.162 3.808 159.474 3.832C159.69 3.856 159.93 3.856 160.122 3.904C160.626 4 160.842 4.336 160.89 4.864C160.938 5.536 160.962 5.92 160.962 9.376V13.024Z" fill="#B19C76"/>
</svg>
