<svg width="841" height="284" viewBox="0 0 841 284" fill="none" xmlns="http://www.w3.org/2000/svg">
<path d="M352.355 109.509C261.721 129.149 157.426 109.673 156.387 109.472C152.499 108.734 148.738 111.282 147.994 115.172C147.25 119.062 149.802 122.821 153.694 123.565C155.981 124.002 185.514 129.524 226.552 131.782L244.435 146.361L219.114 168.505C216.107 171.121 216.289 175.216 219.501 177.659C222.711 180.094 227.743 179.959 230.731 177.339L255.007 156.13L278.069 177.226C279.643 178.669 281.812 179.397 284.007 179.397C285.888 179.397 287.768 178.858 289.289 177.759C292.566 175.382 292.845 171.285 289.932 168.618L265.083 145.878L281.705 132.326C305.659 131.413 330.873 128.843 355.395 123.528C359.267 122.69 361.724 118.872 360.886 115C360.158 111.641 357.184 109.343 353.886 109.343C353.382 109.341 352.87 109.396 352.355 109.509" fill="url(#paint0_linear_206_529)"/>
<path d="M400.585 203.376C363.684 219.018 320.683 233.931 278.625 245.45C259.483 250.681 237.249 256.034 213.883 260.812C196.13 264.44 177.73 267.711 159.445 270.357C185.131 278.875 217.185 283.182 255.614 283.182C358.605 283.182 416.013 252.409 426.755 191.685C418.479 195.603 409.714 199.502 400.585 203.376" fill="url(#paint1_linear_206_529)"/>
<path d="M344.917 6.27182L310.422 20.7606C293.183 15.5218 274.767 12.6461 255.613 12.6461C236.466 12.6461 218.038 15.5218 200.8 20.7606L166.311 6.27182C94.1873 -21.8736 100.318 51.7673 107.403 88.6912C93.9455 108.919 85.415 132.127 83.2035 156.927C39.8274 177.999 -7.27089 208.26 0.939885 237.553C5.00223 252.015 22.1227 260.439 45.6462 264.159C56.21 265.819 68.2289 266.58 81.2809 266.58C99.3729 266.58 119.433 265.125 140.263 262.618C154.581 260.906 169.269 258.681 183.928 256.106C215.836 250.523 247.657 243.271 275.423 235.665C315.637 224.655 362.737 208.76 404.301 190.51C412.53 186.907 420.548 183.205 428.251 179.434C478.438 154.808 515.142 127.095 511.787 101.721C511.867 100.708 511.812 99.6689 511.525 98.6216C505.218 76.088 466.343 65.7723 406.644 70.3757C410.206 39.1477 407.761 0.00203979 373.03 -9.83407e-06C365.338 -9.83407e-06 356.063 1.92048 344.917 6.27182V6.27182ZM143.993 160.717C144.663 156.81 142.044 153.098 138.141 152.428L106.891 147.046C108.41 137.029 111.386 130.046 111.386 130.046C130.146 73.9892 187.689 33.0583 255.613 33.0583C333.802 33.0583 398.249 87.2913 405.592 156.433C413.557 152.641 420.548 149.102 426.599 145.869C423.215 125.761 415.644 106.9 404.664 90.0439C459.61 85.3728 488.942 95.2827 491.309 103.752C493.892 112.991 473.078 133.385 428.019 156.894C421.299 160.399 414.051 163.963 406.254 167.583C371.599 183.652 326.284 200.561 269.934 215.985C221.645 229.201 179.788 237.344 144.833 241.824C133.71 243.265 123.292 244.317 113.579 245.036C102.087 245.897 91.5516 246.317 82.1315 246.317C44.7464 246.317 23.9059 240.125 21.7169 232.281C19.5463 224.562 35.2321 205.087 83.0313 180.326C84.755 202.129 91.8508 220.502 104.269 235.405C112.29 234.946 121.558 234.192 132.025 233.04C124.04 226.428 117.961 218.619 113.542 209.719C113.146 208.893 112.777 208.1 112.427 207.329L139.172 198.495C142.933 197.253 144.977 193.197 143.735 189.436C142.491 185.673 138.435 183.625 134.674 184.874L107.506 193.847C106.903 191.361 106.887 190.213 106.887 190.213C105.6 183.779 104.909 176.942 104.909 169.604C104.909 166.817 105.028 164.058 105.218 161.315L135.704 166.566C136.118 166.638 136.526 166.673 136.932 166.673C140.359 166.673 143.391 164.205 143.993 160.717" fill="url(#paint2_linear_206_529)"/>
<path d="M717.52 75.826C703.31 78.5479 691.752 87.1932 691.707 95.1313C691.664 103.074 703.148 107.302 717.362 104.58C731.572 101.858 743.13 93.2129 743.175 85.2726C743.21 78.966 735.968 75 725.868 75C723.25 75 720.444 75.2644 717.52 75.826" fill="url(#paint3_linear_206_529)"/>
<path d="M639 91.7555C634.339 93.9322 629.771 97.5047 625.298 102.467C621.74 97.8101 617.512 94.3155 612.609 91.9871C607.702 89.6567 602.064 88.4925 595.69 88.4925C590.662 88.4925 586.216 89.2898 582.355 90.8824C578.493 92.479 575.032 94.9591 571.965 98.3327C570.127 95.0206 568.026 92.5549 565.667 90.9295C563.306 89.3042 560.684 88.4925 557.802 88.4925C552.84 88.4925 549.13 90.3023 546.679 93.9179C544.228 97.5354 543 103.02 543 110.376V170.053C543 177.349 544.209 182.775 546.632 186.329C549.053 189.885 552.777 191.662 557.802 191.662C562.83 191.662 566.571 189.885 569.022 186.329C571.473 182.775 572.701 177.349 572.701 170.053V136.123C572.701 128.46 573.896 122.85 576.286 119.296C578.678 115.742 582.447 113.963 587.596 113.963C592.195 113.963 595.565 115.756 597.713 119.343C599.856 122.926 600.93 128.644 600.93 136.49V170.053C600.93 177.349 602.154 182.775 604.608 186.329C607.059 189.885 610.799 191.662 615.827 191.662C620.853 191.662 624.591 189.885 627.045 186.329C629.496 182.775 630.722 177.349 630.722 170.053V136.123C630.722 128.46 631.921 122.85 634.309 119.296C636.7 115.742 640.47 113.963 645.62 113.963C650.277 113.963 653.694 115.771 655.873 119.388C658.047 123.006 659.138 128.706 659.138 136.49V170.053C659.138 177.411 660.331 182.85 662.722 186.376C665.114 189.901 668.82 191.662 673.85 191.662C678.875 191.662 682.614 189.885 685.065 186.329C687.519 182.775 688.744 177.349 688.744 170.053V127.48C688.744 115.096 685.803 105.504 679.919 98.6996C674.032 91.8949 665.789 88.4925 655.182 88.4925C649.053 88.4925 643.655 89.5809 639 91.7555" fill="url(#paint4_linear_206_529)"/>
<path d="M815.585 90.6057C813.347 91.8949 811.369 93.5817 809.655 95.6641L793.103 115.986L775.08 95.1107C773.24 92.9668 771.309 91.3886 769.288 90.3782C767.265 89.3657 765.086 88.8594 762.76 88.8594C759.081 88.8594 755.844 90.3638 753.059 93.3644C750.267 96.3692 748.874 99.8351 748.874 103.758C748.874 105.717 749.364 107.742 750.345 109.825C751.325 111.911 752.704 113.904 754.481 115.802L775.265 136.859L750.53 163.984C747.953 166.866 746.283 169.196 745.516 170.973C744.752 172.752 744.369 174.775 744.369 177.042C744.369 181.028 745.777 184.461 748.597 187.341C751.417 190.221 754.758 191.662 758.62 191.662C760.95 191.662 763.11 191.065 765.103 189.87C767.093 188.673 769.224 186.696 771.493 183.939L792.551 158.745L813.791 183.939C816.243 186.759 818.495 188.751 820.551 189.915C822.605 191.08 824.886 191.662 827.401 191.662C831.08 191.662 834.251 190.315 836.917 187.616C839.586 184.921 840.918 181.701 840.918 177.962C840.918 175.449 840.471 173.152 839.586 171.065C838.694 168.983 836.839 166.376 834.021 163.25L810.848 137.042L830.434 116.17C832.582 113.779 834.206 111.512 835.31 109.366C836.413 107.22 836.964 105.228 836.964 103.387C836.964 99.4026 835.462 95.9551 832.457 93.0427C829.455 90.1322 825.868 88.677 821.699 88.677C819.86 88.677 817.823 89.3185 815.585 90.6057" fill="url(#paint5_linear_206_529)"/>
<path d="M722.889 110.007C716.423 111.891 710.233 112.879 704.974 113.037V170.053C704.974 177.349 706.201 182.775 708.653 186.329C711.104 189.885 714.844 191.662 719.872 191.662C724.836 191.662 728.513 189.901 730.905 186.376C733.297 182.85 734.49 177.411 734.49 170.053V110.376C734.49 108.735 734.422 107.202 734.299 105.75C730.879 107.345 727.029 108.8 722.889 110.007" fill="url(#paint6_linear_206_529)"/>
<defs>
<linearGradient id="paint0_linear_206_529" x1="246.958" y1="77.2226" x2="288.9" y2="297.028" gradientUnits="userSpaceOnUse">
<stop stop-color="#FBC634"/>
<stop offset="1" stop-color="#F08200"/>
</linearGradient>
<linearGradient id="paint1_linear_206_529" x1="263.164" y1="74.1305" x2="305.106" y2="293.936" gradientUnits="userSpaceOnUse">
<stop stop-color="#FBC634"/>
<stop offset="1" stop-color="#F08200"/>
</linearGradient>
<linearGradient id="paint2_linear_206_529" x1="239.145" y1="78.7137" x2="281.086" y2="298.519" gradientUnits="userSpaceOnUse">
<stop stop-color="#FBC634"/>
<stop offset="1" stop-color="#F08200"/>
</linearGradient>
<linearGradient id="paint3_linear_206_529" x1="670.375" y1="90.2027" x2="721.841" y2="90.2027" gradientUnits="userSpaceOnUse">
<stop stop-color="#FBC634"/>
<stop offset="1" stop-color="#F08200"/>
</linearGradient>
<linearGradient id="paint4_linear_206_529" x1="604.762" y1="125.737" x2="674.093" y2="256.399" gradientUnits="userSpaceOnUse">
<stop stop-color="#FBC634"/>
<stop offset="1" stop-color="#F08200"/>
</linearGradient>
<linearGradient id="paint5_linear_206_529" x1="743.792" y1="51.9656" x2="813.123" y2="182.628" gradientUnits="userSpaceOnUse">
<stop stop-color="#FBC634"/>
<stop offset="1" stop-color="#F08200"/>
</linearGradient>
<linearGradient id="paint6_linear_206_529" x1="687.387" y1="81.8953" x2="756.718" y2="212.558" gradientUnits="userSpaceOnUse">
<stop stop-color="#FBC634"/>
<stop offset="1" stop-color="#F08200"/>
</linearGradient>
</defs>
</svg>
