<svg width="24" height="48" viewBox="0 0 24 48" fill="none" xmlns="http://www.w3.org/2000/svg">
<path d="M23.9935 23.8173C23.9516 23.2231 23.7169 22.6593 23.3248 22.2174L4.54725 0.884446C4.08434 0.357789 3.43607 0.0416052 2.74588 0.00351068C2.05569 -0.0326791 1.37855 0.212078 0.864404 0.68445C0.350258 1.15777 0.0400933 1.82062 0.00376777 2.52632C-0.0325578 3.23297 0.206818 3.92534 0.668805 4.45104L17.8815 24.0002L0.668805 43.5503C0.206818 44.076 -0.0334892 44.7693 0.00376777 45.475C0.0400933 46.1816 0.349326 46.8445 0.864404 47.3169C1.37855 47.7892 2.05663 48.0349 2.74681 47.9968C3.437 47.9597 4.08527 47.6426 4.54819 47.1169L23.3257 25.784C23.7998 25.2478 24.041 24.5383 23.9935 23.8173Z" fill="#B19C76"/>
</svg>
