<svg width="24" height="24" viewBox="0 0 24 24" fill="none" xmlns="http://www.w3.org/2000/svg">
<g clip-path="url(#clip0_2_290)">
<path d="M17.1042 8.3125C16.7396 8.10417 16.2708 8.10417 15.8542 8.3125L12.9375 10.0313L10.9583 11.125L8.09375 12.8438C7.72917 13.0521 7.26042 13.0521 6.84375 12.8438L4.60417 11.4896C4.23958 11.2813 3.97917 10.8646 3.97917 10.3958V7.79167C3.97917 7.375 4.1875 6.95833 4.60417 6.69792L6.84375 5.39583C7.20833 5.1875 7.67708 5.1875 8.09375 5.39583L10.3333 6.75C10.6979 6.95833 10.9583 7.375 10.9583 7.84375V9.5625L12.9375 8.41667V6.64583C12.9375 6.22917 12.7292 5.8125 12.3125 5.55208L8.14583 3.10417C7.78125 2.89583 7.3125 2.89583 6.89583 3.10417L2.625 5.60417C2.20833 5.8125 2 6.22917 2 6.64583V11.5417C2 11.9583 2.20833 12.375 2.625 12.6354L6.84375 15.0833C7.20833 15.2917 7.67708 15.2917 8.09375 15.0833L10.9583 13.4167L12.9375 12.2708L15.8021 10.6042C16.1667 10.3958 16.6354 10.3958 17.0521 10.6042L19.2917 11.9063C19.6562 12.1146 19.9167 12.5313 19.9167 13V15.6042C19.9167 16.0208 19.7083 16.4375 19.2917 16.6979L17.1042 18C16.7396 18.2083 16.2708 18.2083 15.8542 18L13.6146 16.6979C13.25 16.4896 12.9896 16.0729 12.9896 15.6042V13.9375L11.0104 15.0833V16.8021C11.0104 17.2188 11.2187 17.6354 11.6354 17.8958L15.8542 20.3438C16.2187 20.5521 16.6875 20.5521 17.1042 20.3438L21.3229 17.8958C21.6875 17.6875 21.9479 17.2708 21.9479 16.8021V11.8542C21.9479 11.4375 21.7396 11.0208 21.3229 10.7604L17.1042 8.3125Z" fill="#8247E5"/>
</g>
<defs>
<clipPath id="clip0_2_290">
<rect width="20" height="17.4479" fill="white" transform="translate(2 3)"/>
</clipPath>
</defs>
</svg>
